<svg width="114" height="114" viewBox="0 0 114 114" fill="none" xmlns="http://www.w3.org/2000/svg">
<g clip-path="url(#clip0_96_420)">
<g clip-path="url(#clip1_96_420)">
<path fill-rule="evenodd" clip-rule="evenodd" d="M1.15513 49.0799C14.5846 41.883 32.7416 37.7253 56.8111 37.7253C80.9853 37.7253 99.1955 41.9193 112.642 49.174C108.915 21.7133 85.3752 0.548464 56.8922 0.548461C28.4418 0.548459 4.92337 21.665 1.15513 49.0799Z" fill="black" fill-opacity="0.66"/>
<path fill-rule="evenodd" clip-rule="evenodd" d="M107.936 80.5128C98.9916 99.7439 79.499 113.077 56.8924 113.077C34.2621 113.077 14.7523 99.716 5.82066 80.4524C18.7032 74.6712 35.4229 71.3881 56.8113 71.3881C78.274 71.3881 95.0355 74.6941 107.936 80.5128Z" fill="black" fill-opacity="0.1"/>
<path fill-rule="evenodd" clip-rule="evenodd" d="M1.15516 49.0798C0.807695 51.6077 0.628152 54.1892 0.628152 56.8125C0.628151 65.256 2.48804 73.2651 5.82049 80.4524C18.703 74.6712 35.4227 71.3881 56.8111 71.3881C78.2738 71.3881 95.0354 74.6941 107.936 80.5128C111.286 73.3099 113.156 65.2797 113.156 56.8125C113.156 54.2217 112.981 51.6718 112.642 49.174C99.1955 41.9193 80.9853 37.7252 56.8111 37.7252C32.7417 37.7252 14.5846 41.883 1.15516 49.0798Z" fill="black" fill-opacity="0.44"/>
</g>
</g>
<defs>
<clipPath id="clip0_96_420">
<rect width="113.156" height="113.156" rx="29.0145" fill="white"/>
</clipPath>
<clipPath id="clip1_96_420">
<rect x="113.156" y="113.077" width="112.687" height="112.528" rx="56.264" transform="rotate(-180 113.156 113.077)" fill="white"/>
</clipPath>
</defs>
</svg>
